<svg width="299.825px" height="121.39999999999999px" xmlns="http://www.w3.org/2000/svg" viewBox="100.0875 14.300000000000004 299.825 121.39999999999999" preserveAspectRatio="xMidYMid"><defs><filter id="editing-hole" x="-100%" y="-100%" width="300%" height="300%"><feFlood flood-color="#000" result="black"></feFlood><feMorphology operator="dilate" radius="2" in="SourceGraphic" result="erode"></feMorphology><feGaussianBlur in="erode" stdDeviation="4" result="blur"></feGaussianBlur><feOffset in="blur" dx="2" dy="2" result="offset"></feOffset><feComposite operator="atop" in="offset" in2="black" result="merge"></feComposite><feComposite operator="in" in="merge" in2="SourceGraphic" result="inner-shadow"></feComposite></filter></defs><g filter="url(#editing-hole)"><g transform="translate(146.1299729347229, 97.46500015258789)"><path d="M6.21-31.17L6.21-31.17L6.21-31.17Q4.03-32.83 4.03-36.38L4.03-36.38L4.03-36.38Q4.03-39.94 6.37-41.79L6.37-41.79L6.37-41.79Q8.70-43.65 12.74-43.65L12.74-43.65L12.74-43.65Q15.30-43.65 21.38-42.75L21.38-42.75L25.73-42.11L25.73-42.11Q27.90-41.86 30.18-41.86L30.18-41.86L30.18-41.86Q32.45-41.86 33.98-42.82L33.98-42.82L33.98-42.82Q36.29-40.77 36.29-37.82L36.29-37.82L36.29-37.82Q36.29-34.88 33.66-32.77L33.66-32.77L33.66-32.77Q30.98-30.53 27.52-30.53L27.52-30.53L27.52-30.53Q25.86-30.53 23.17-30.98L23.17-30.98L23.17-30.98Q20.03-21.12 20.03-14.27L20.03-14.27L20.03-14.27Q20.03-7.42 23.49-3.84L23.49-3.84L23.49-3.84Q21.89-0.96 19.52 0.16L19.52 0.16L19.52 0.16Q17.15 1.28 13.60 1.28L13.60 1.28L13.60 1.28Q10.05 1.28 7.84-0.67L7.84-0.67L7.84-0.67Q5.63-2.62 5.63-6.66L5.63-6.66L5.63-6.66Q5.63-11.33 8.19-19.01L8.19-19.01L8.19-19.01Q10.75-26.62 14.59-32.45L14.59-32.45L14.59-32.45Q12.74-32.64 10.82-32.64L10.82-32.64L10.82-32.64Q6.85-32.64 6.21-31.17ZM47.81 0.83L43.71 0.70L43.71 0.70Q41.73 0.64 39.65 0.64L39.65 0.64L39.65 0.64Q37.57 0.64 35.52 0.90L35.52 0.90L35.52 0.90Q35.26-0.13 35.26-1.34L35.26-1.34L35.26-1.34Q35.26-3.90 36.70-5.44L36.70-5.44L36.70-5.44Q38.14-6.98 40.38-6.98L40.38-6.98L43.84-6.98L49.22-31.17L49.22-31.17Q47.23-29.18 43.14-29.18L43.14-29.18L43.14-29.18Q41.09-29.18 39.49-31.10L39.49-31.10L39.49-31.10Q37.89-32.90 37.63-35.46L37.63-35.46L37.63-35.46Q47.10-37.12 61.25-43.46L61.25-43.46L63.30-41.02L57.09-6.98L58.69-6.98L58.69-6.98Q62.53-6.98 64.51-7.68L64.51-7.68L64.51-7.68Q65.34-6.27 65.34-3.97L65.34-3.97L65.34-3.97Q65.34-1.66 63.65-0.29L63.65-0.29L63.65-0.29Q61.95 1.09 59.14 1.09L59.14 1.09L59.14 1.09Q53.44 1.09 47.81 0.83L47.81 0.83ZM88.51-22.46L88.51-22.46L88.51-22.46Q89.41-24.83 89.41-26.88L89.41-26.88L89.41-26.88Q89.41-30.66 86.34-30.66L86.34-30.66L86.34-30.66Q84.74-30.66 83.42-29.22L83.42-29.22L83.42-29.22Q82.11-27.78 82.11-25.98L82.11-25.98L82.11-25.98Q82.11-24.70 83.14-23.68L83.14-23.68L83.14-23.68Q84.61-22.27 88.38-19.97L88.38-19.97L88.38-19.97Q92.16-17.66 93.60-15.78L93.60-15.78L93.60-15.78Q95.04-13.89 95.04-11.30L95.04-11.30L95.04-11.30Q95.04-8.70 93.79-6.34L93.79-6.34L93.79-6.34Q92.54-3.97 90.30-2.30L90.30-2.30L90.30-2.30Q85.50 1.28 77.82 1.28L77.82 1.28L77.82 1.28Q73.66 1.28 70.46-0.90L70.46-0.90L70.46-0.90Q67.26-3.01 67.26-5.50L67.26-5.50L67.26-5.50Q67.26-8 69.09-9.47L69.09-9.47L69.09-9.47Q70.91-10.94 73.60-10.94L73.60-10.94L73.60-10.94Q76.29-10.94 77.95-9.92L77.95-9.92L77.95-9.92Q77.12-7.81 77.12-6.40L77.12-6.40L77.12-6.40Q77.12-2.18 80.70-2.18L80.70-2.18L80.70-2.18Q82.24-2.18 83.26-3.14L83.26-3.14L83.26-3.14Q84.29-4.10 84.29-5.76L84.29-5.76L84.29-5.76Q84.29-9.02 78.78-12.48L78.78-12.48L78.78-12.48Q74.30-15.42 73.28-16.58L73.28-16.58L73.28-16.58Q71.55-18.62 71.55-21.18L71.55-21.18L71.55-21.18Q71.55-23.74 72.77-26.18L72.77-26.18L72.77-26.18Q73.98-28.61 76.22-30.34L76.22-30.34L76.22-30.34Q80.90-33.92 89.02-33.92L89.02-33.92L89.02-33.92Q93.18-33.92 95.65-32.26L95.65-32.26L95.65-32.26Q98.11-30.59 98.11-27.78L98.11-27.78L98.11-27.78Q98.11-24.96 96.42-23.36L96.42-23.36L96.42-23.36Q94.72-21.76 91.65-21.76L91.65-21.76L91.65-21.76Q89.54-21.76 88.51-22.46ZM126.40-10.82L126.40-10.82L126.40-10.82Q128-9.73 128-7.33L128-7.33L128-7.33Q128-4.93 126.78-3.39L126.78-3.39L126.78-3.39Q125.57-1.86 123.58-0.83L123.58-0.83L123.58-0.83Q119.49 1.28 115.07 1.28L115.07 1.28L115.07 1.28Q110.66 1.28 108.06 0.32L108.06 0.32L108.06 0.32Q105.47-0.64 103.74-2.43L103.74-2.43L103.74-2.43Q100.35-5.82 100.35-12.03L100.35-12.03L100.35-12.03Q100.35-21.70 105.60-27.58L105.60-27.58L105.60-27.58Q111.23-33.92 121.02-33.92L121.02-33.92L121.02-33.92Q127.10-33.92 130.11-31.36L130.11-31.36L130.11-31.36Q132.35-29.44 132.35-26.30L132.35-26.30L132.35-26.30Q132.35-15.04 112.90-15.04L112.90-15.04L112.90-15.04Q112.64-13.38 112.64-11.97L112.64-11.97L112.64-11.97Q112.64-9.02 113.95-7.90L113.95-7.90L113.95-7.90Q115.26-6.78 117.70-6.78L117.70-6.78L117.70-6.78Q120.13-6.78 122.72-7.90L122.72-7.90L122.72-7.90Q125.31-9.02 126.40-10.82ZM113.34-17.79L113.34-17.79L113.34-17.79Q117.89-17.79 120.51-20.61L120.51-20.61L120.51-20.61Q123.14-23.30 123.14-27.58L123.14-27.58L123.14-27.58Q123.14-29.06 122.59-29.86L122.59-29.86L122.59-29.86Q122.05-30.66 120.96-30.66L120.96-30.66L120.96-30.66Q119.87-30.66 118.94-30.24L118.94-30.24L118.94-30.24Q118.02-29.82 117.06-28.42L117.06-28.42L117.06-28.42Q114.69-25.22 113.34-17.79ZM157.76-31.55L157.76-31.55L157.76-31.55Q159.87-33.92 163.52-33.92L163.52-33.92L163.52-33.92Q165.76-33.92 167.49-32.70L167.49-32.70L167.49-32.70Q169.22-31.49 169.22-29.22L169.22-29.22L169.22-29.22Q169.22-26.94 168.51-24.51L168.51-24.51L168.51-24.51Q167.81-22.08 166.72-19.58L166.72-19.58L166.72-19.58Q164.54-14.72 161.54-10.69L161.54-10.69L161.54-10.69Q157.31-4.86 153.25-1.79L153.25-1.79L153.25-1.79Q149.18 1.28 144.77 1.28L144.77 1.28L144.77 1.28Q141.18 1.28 139.01 0.45L139.01 0.45L139.01 0.45Q138.62-12.99 138.14-17.79L138.14-17.79L138.14-17.79Q137.66-22.59 137.28-25.22L137.28-25.22L137.28-25.22Q136.64-30.34 134.72-31.55L134.72-31.55L134.72-31.55Q136.19-32.83 137.63-33.38L137.63-33.38L137.63-33.38Q139.07-33.92 142.05-33.92L142.05-33.92L142.05-33.92Q145.02-33.92 147.14-31.58L147.14-31.58L147.14-31.58Q149.25-29.25 149.66-25.12L149.66-25.12L149.66-25.12Q150.08-20.99 150.08-16L150.08-16L150.08-16Q150.08-11.01 149.70-4.99L149.70-4.99L149.70-4.99Q151.68-6.40 153.79-10.69L153.79-10.69L153.79-10.69Q156.67-16.64 157.70-23.81L157.70-23.81L157.70-23.81Q158.02-25.98 158.02-28.29L158.02-28.29L158.02-28.29Q158.02-30.59 157.76-31.55ZM203.01-16.83L203.01-16.83L203.01-16.83Q203.71-15.49 203.71-12.86L203.71-12.86L203.71-12.86Q203.71-10.24 201.76-8.42L201.76-8.42L201.76-8.42Q199.81-6.59 195.52-6.59L195.52-6.59L195.14-6.59L194.11 0L194.11 0Q192.38 1.28 189.31 1.28L189.31 1.28L189.31 1.28Q185.34 1.28 184.06-1.15L184.06-1.15L184.06-1.15Q183.55-2.05 183.55-2.82L183.55-2.82L183.55-2.82Q183.55-3.71 183.68-4.74L183.68-4.74L184.13-7.17L169.41-8.70L169.41-16.77L193.34-43.58L193.34-43.52L193.41-43.58L202.30-42.62L202.30-42.62Q199.30-30.34 196.74-16.19L196.74-16.19L198.21-16.19L198.21-16.19Q201.86-16.19 203.01-16.83ZM190.14-32.83L176.26-16.64L185.92-16.32L185.92-16.32Q188.03-25.73 190.14-32.83L190.14-32.83Z" fill="#ffffff"></path></g></g><style>text {
  font-size: 64px;
  font-family: Arial Black;
  dominant-baseline: central;
  text-anchor: middle;
}</style></svg>